{"glyphs":{":":{"x_min":0,"x_max":292,"ha":292,"o":"m 127 158 q 154 158 171 147 q 188 137 188 122 q 188 94 170 65 q 152 36 125 16 q 97 -3 70 -3 q 49 -3 35 9 q 21 20 21 39 q 21 55 30 79 q 39 104 51 122 q 65 143 86 150 q 107 158 126 158 z m 158 282 q 137 282 122 297 q 107 312 107 331 q 107 350 119 378 q 131 406 145 419 q 159 433 183 442 q 207 451 229 451 q 275 451 275 425 l 275 424 q 273 396 256 359 q 239 319 226 309 q 215 299 194 291 q 173 282 158 282 z"},"$":{"x_min":0,"x_max":542,"ha":542,"o":"m 388 676 l 428 663 q 440 702 468 702 q 478 702 478 691 q 478 677 466 652 q 465 649 465 649 q 465 649 464 646 q 527 612 527 563 q 527 542 517 520 q 507 498 491 483 q 476 468 462 468 q 438 468 416 513 l 371 380 q 403 351 417 336 q 430 322 445 301 q 480 254 480 194 q 480 139 449 91 q 417 43 363 14 q 308 -16 238 -23 l 236 -29 q 205 -108 199 -114 q 198 -116 193 -116 q 186 -116 186 -105 q 186 -101 190 -83 q 194 -64 204 -27 l 206 -21 l 156 -11 q 144 -54 118 -106 q 114 -115 110 -115 q 106 -115 103 -111 q 100 -106 100 -103 q 100 -92 118 -27 q 122 -11 124 -4 l 126 2 q 26 46 26 75 q 26 85 37 104 q 48 122 61 135 q 70 145 84 155 q 98 166 108 171 q 119 177 126 177 q 140 177 159 154 q 164 148 169 143 l 214 281 q 173 311 158 325 q 143 339 121 364 q 78 414 78 473 q 78 529 116 584 q 135 612 159 631 q 182 649 215 661 q 269 680 320 680 q 327 680 333 680 q 339 680 346 679 q 350 688 361 694 q 372 701 384 701 q 391 701 391 691 q 391 688 388 676 z m 282 476 l 323 600 q 307 602 306 602 q 260 602 260 538 q 260 505 282 476 z m 307 189 l 275 88 q 296 81 306 81 q 326 81 326 117 q 326 149 307 189 z m 358 585 l 308 442 l 338 411 l 391 553 l 388 557 q 369 578 358 585 z m 247 255 l 201 122 l 240 99 l 279 224 z"},"?":{"x_min":0,"x_max":406,"ha":406,"o":"m 171 602 q 150 580 139 555 q 114 497 114 439 q 114 419 122 395 q 124 390 124 386 q 124 377 112 377 q 91 377 71 398 q 50 418 38 450 q 25 482 25 514 q 25 583 73 628 q 122 673 196 673 q 248 673 294 653 q 339 633 366 599 q 393 565 393 526 q 393 464 346 400 q 326 374 309 356 q 291 338 255 310 l 255 308 q 274 308 290 308 q 305 308 323 308 q 341 309 348 309 q 352 310 354 310 q 356 310 359 310 q 376 310 376 297 q 376 289 364 269 q 353 249 337 234 q 284 181 156 181 q 62 181 62 217 q 62 223 67 232 q 73 241 91 264 q 120 299 148 340 q 219 447 219 528 q 219 560 208 578 q 197 595 171 602 z m 91 -5 q 73 -5 59 8 q 46 21 46 39 q 46 58 58 86 q 69 115 81 126 q 98 143 126 152 q 154 161 185 161 q 230 161 230 130 q 230 119 226 103 q 213 48 201 36 q 184 20 126 2 q 104 -5 91 -5 z"},"<":{"x_min":0,"x_max":667,"ha":667,"o":"m 605 56 l 62 283 l 62 377 l 605 604 l 605 491 l 205 330 l 605 170 z"},"'":{"x_min":0,"x_max":191,"ha":191,"o":"m 129 462 l 135 596 l 160 716 l 260 716 l 235 596 l 183 462 z"},"=":{"x_min":0,"x_max":667,"ha":667,"o":"m 62 500 l 605 500 l 605 395 l 62 395 z m 62 267 l 605 267 l 605 162 l 62 162 z"},"a":{"x_min":0,"x_max":552,"ha":552,"o":"m 389 254 l 380 251 q 345 241 329 241 q 310 241 310 251 q 310 254 318 269 q 345 311 345 347 q 345 368 338 385 q 331 403 322 403 q 314 403 298 386 q 252 337 226 285 q 199 233 199 193 q 199 166 210 148 q 221 131 238 131 q 252 131 291 161 q 330 191 378 241 l 391 252 z m 360 142 l 360 140 l 358 142 q 312 89 275 55 q 237 21 205 4 q 173 -13 146 -13 q 91 -13 56 23 q 20 60 20 116 q 20 151 38 198 q 55 246 86 291 q 137 365 215 417 q 295 470 369 470 q 432 470 472 445 q 512 419 512 380 q 512 351 492 319 q 519 319 525 313 q 532 308 532 287 q 532 289 530 267 q 527 219 527 177 q 527 155 527 144 q 528 132 529 118 q 531 103 532 94 q 536 71 545 49 q 516 20 489 7 q 462 -7 434 -7 q 359 -7 359 119 q 359 134 360 142 z"},"L":{"x_min":0,"x_max":385,"ha":385,"o":"m 305 419 l 289 380 q 257 305 230 230 q 217 194 190 104 q 230 107 299 121 q 343 130 352 130 q 369 130 369 116 q 369 100 350 71 q 332 42 308 21 q 292 6 260 0 q 229 -6 161 -6 q 98 -6 64 -2 q 63 -2 48 3 q 20 15 20 52 q 20 79 35 150 q 51 221 80 327 q 146 563 180 619 q 191 638 207 649 q 224 659 252 665 q 279 671 315 671 q 348 671 362 662 q 375 654 375 633 q 375 613 357 558 q 340 503 305 419 z"},"3":{"x_min":0,"x_max":531,"ha":531,"o":"m 178 63 l 181 63 q 197 63 221 78 q 246 93 269 117 q 299 148 317 184 q 335 219 335 250 q 335 317 264 331 q 250 333 245 337 q 239 341 239 350 q 239 360 262 380 q 297 411 317 447 q 337 483 337 520 q 337 559 321 559 q 308 559 288 538 q 269 518 251 485 q 233 453 224 422 q 221 411 218 408 q 215 405 210 405 q 196 405 175 427 q 145 458 145 491 q 145 529 176 566 q 206 603 255 626 q 304 649 355 649 q 396 649 431 633 q 465 617 484 588 q 503 560 503 524 q 503 459 447 420 q 417 400 374 382 l 374 380 q 443 376 478 349 q 512 322 512 274 q 512 251 502 224 q 491 197 472 169 q 453 140 426 112 q 367 50 298 15 q 229 -20 166 -20 q 105 -20 65 19 q 25 57 25 115 q 25 155 52 194 q 79 234 122 259 q 165 284 208 284 q 226 284 226 271 q 226 266 211 253 q 209 251 208 250 q 206 248 204 246 q 185 224 175 191 q 164 159 164 123 q 164 88 178 63 z"},";":{"x_min":0,"x_max":292,"ha":292,"o":"m 63 -101 q 41 -101 28 -87 q 15 -73 15 -52 q 15 -24 31 18 q 47 61 75 106 q 81 116 96 133 q 122 157 153 157 q 167 157 179 151 q 190 145 197 133 q 203 122 203 108 q 203 85 184 38 q 164 -9 139 -46 q 119 -75 98 -89 q 80 -101 63 -101 z m 158 303 q 124 303 124 334 q 124 348 134 372 q 144 396 157 418 q 158 419 159 421 q 161 424 164 428 q 175 438 196 445 q 217 452 236 452 q 289 452 289 402 q 289 376 276 353 q 264 330 245 323 q 222 314 196 309 q 170 303 158 303 z"},"J":{"x_min":0,"x_max":531,"ha":531,"o":"m 296 554 q 287 552 279 550 q 271 547 266 546 q 262 545 242 539 q 158 514 131 514 q 104 514 88 524 q 72 534 72 552 q 72 581 95 616 q 119 652 146 662 q 171 672 207 677 q 243 681 299 681 q 410 681 463 668 q 515 656 515 629 q 515 608 497 527 q 479 446 461 383 q 388 121 293 -52 q 272 -90 248 -117 q 224 -144 198 -157 q 173 -171 145 -171 q 105 -171 68 -113 q 30 -56 30 7 q 30 53 46 96 q 62 139 89 168 q 104 183 122 193 q 139 204 148 204 q 156 204 160 195 q 165 187 165 170 q 165 162 161 142 q 144 49 144 -17 q 144 -53 152 -80 q 169 -50 180 -19 q 208 70 226 145 q 255 269 269 349 q 283 430 296 554 z"},"V":{"x_min":0,"x_max":544,"ha":544,"o":"m 428 591 q 456 618 482 636 q 508 655 518 655 q 533 655 533 626 q 533 592 526 553 q 518 514 505 476 q 483 412 448 334 q 413 256 380 197 q 358 159 324 106 q 297 65 277 46 q 256 26 227 14 q 202 4 183 1 q 161 -3 147 -3 q 123 -3 110 9 q 95 25 82 65 q 67 114 52 194 q 36 274 31 333 q 27 374 27 448 q 27 583 56 613 q 66 623 94 637 q 123 651 150 658 q 171 664 186 664 q 222 664 222 624 q 222 603 218 543 q 210 422 210 353 q 210 233 220 173 q 226 144 229 133 q 248 157 260 178 q 272 199 284 222 q 308 271 318 298 q 349 375 367 459 q 379 519 394 545 q 405 566 428 591 z"},"\"":{"x_min":0,"x_max":355,"ha":355,"o":"m 131 462 l 135 599 l 160 716 l 260 716 l 236 599 l 184 462 z m 292 462 l 298 599 l 323 716 l 423 716 l 398 599 l 345 462 z"},"7":{"x_min":0,"x_max":467,"ha":467,"o":"m 193 356 l 283 544 q 279 545 272 545 q 246 545 171 519 q 132 505 111 500 q 90 494 75 494 q 48 494 48 515 q 48 533 62 562 q 76 592 95 615 q 108 631 119 637 q 129 642 151 642 q 160 642 166 641 l 276 639 q 387 636 429 618 q 445 610 445 595 q 445 582 427 544 l 340 357 l 349 357 l 373 357 l 388 357 q 413 357 413 351 q 413 340 402 321 q 391 301 379 289 q 350 259 288 245 l 222 84 q 220 78 218 72 q 210 52 202 43 q 180 24 145 12 q 110 0 76 0 q 54 0 41 8 q 28 17 28 30 q 28 45 60 102 q 62 104 62 106 q 63 108 65 111 l 129 227 l 123 227 q 117 226 106 226 q 64 226 64 258 q 64 268 72 289 q 92 334 105 346 q 112 353 145 353 q 166 353 193 356 z"},"S":{"x_min":0,"x_max":510,"ha":510,"o":"m 167 313 q 125 355 108 388 q 91 421 91 459 q 91 516 125 565 q 160 615 218 645 q 275 674 342 674 q 417 674 458 643 q 498 611 498 554 q 498 527 483 498 q 469 468 443 443 q 425 425 410 416 q 395 407 385 407 q 372 407 372 427 q 372 426 374 442 q 377 465 377 483 q 377 508 369 534 q 362 560 350 577 q 338 594 327 594 q 322 594 315 586 q 302 572 294 552 q 287 532 287 514 q 287 492 293 473 q 300 455 315 435 q 331 416 357 392 q 398 355 420 327 q 442 299 453 272 q 463 244 463 212 q 463 155 433 103 q 403 50 354 17 q 305 -15 253 -15 q 203 -15 156 6 q 108 28 67 68 q 24 110 24 143 q 24 163 43 182 q 62 202 91 215 q 120 229 139 229 q 150 229 158 223 q 166 218 172 204 q 178 191 184 168 q 193 135 201 119 q 209 104 223 88 q 238 73 254 73 q 273 73 285 89 q 296 104 296 131 q 296 173 266 215 q 257 229 247 240 q 236 251 201 282 q 190 291 167 313 z"},"}":{"x_min":0,"x_max":390,"ha":390,"o":"m 388 395 l 388 278 q 361 276 344 271 q 328 265 316 254 q 305 243 297 224 q 288 203 285 179 q 282 156 282 102 l 282 94 l 282 85 q 282 27 279 0 q 275 -28 265 -51 q 251 -85 221 -104 q 193 -121 165 -127 q 137 -133 80 -133 l 55 -133 l 55 -16 l 61 -16 q 94 -16 109 -13 q 125 -11 136 -2 q 146 7 150 19 q 154 31 154 55 q 154 42 156 114 q 158 143 159 162 q 160 181 160 193 q 163 221 172 249 q 183 279 200 299 q 217 319 246 336 q 215 356 198 375 q 182 394 172 423 q 165 443 163 455 q 161 467 159 492 q 157 517 156 559 q 154 631 154 618 q 154 664 137 676 q 121 689 61 689 l 54 689 l 54 805 l 80 805 q 137 805 166 799 q 195 793 220 777 q 252 756 265 724 q 274 701 278 674 q 281 647 281 587 l 281 578 l 281 570 q 281 536 282 513 q 284 490 287 476 q 290 462 296 448 q 311 418 333 406 q 346 399 357 397 q 367 396 388 395 z"},"Z":{"x_min":0,"x_max":625,"ha":625,"o":"m 206 311 l 248 358 q 279 392 305 423 q 331 454 350 478 q 369 502 387 526 q 392 534 395 538 q 397 543 402 551 q 360 546 306 533 q 240 518 200 513 q 196 513 191 512 q 186 512 179 512 q 172 512 167 511 q 116 513 116 549 q 116 565 134 595 q 151 625 175 650 q 185 661 194 664 q 204 667 229 667 q 239 667 249 668 q 258 668 288 668 l 356 670 l 409 672 q 417 672 423 673 q 429 673 442 673 l 446 673 l 457 673 l 468 673 l 479 673 q 541 673 567 669 q 593 665 602 654 q 611 644 611 635 q 611 623 581 585 q 561 561 514 497 q 511 493 480 450 l 454 413 q 347 260 310 195 q 308 189 306 186 q 304 183 301 176 q 370 179 402 183 q 467 191 514 202 q 537 208 549 208 q 574 208 574 184 q 574 160 555 124 q 536 87 514 67 q 493 47 455 32 q 417 18 368 10 q 319 2 267 2 q 195 2 141 12 q 88 21 59 40 q 30 58 30 84 q 30 105 56 141 q 82 176 163 264 q 192 296 206 311 z"},"x":{"x_min":0,"x_max":500,"ha":500,"o":"m 244 105 l 239 100 q 236 98 231 94 q 227 89 222 85 q 167 33 139 15 q 111 -4 89 -4 q 60 -4 41 13 q 22 31 22 58 q 22 88 48 114 q 55 121 83 143 q 127 178 145 194 q 164 213 180 232 q 160 275 140 311 q 127 332 116 350 q 100 374 85 389 q 70 405 54 415 q 35 426 35 436 q 35 445 54 452 q 73 459 101 459 q 166 459 213 426 q 226 417 235 410 q 244 402 258 389 q 271 375 286 361 q 325 412 363 439 q 401 467 431 467 q 452 467 470 459 q 489 452 489 443 q 489 424 473 399 q 457 374 421 332 q 391 296 385 289 q 379 281 362 254 l 478 68 q 488 52 488 40 q 488 20 456 3 q 425 -14 388 -14 q 322 -14 286 34 q 269 58 244 105 z"},")":{"x_min":0,"x_max":323,"ha":323,"o":"m 106 135 q 177 254 177 369 q 177 416 165 456 q 153 497 130 526 q 108 556 75 574 q 63 581 59 586 q 54 591 54 598 q 54 613 79 640 q 96 657 116 667 q 136 677 154 677 q 197 677 238 635 q 308 564 308 425 q 308 355 290 293 q 271 231 233 174 q 204 129 163 86 q 123 42 87 17 q 75 8 61 2 q 48 -3 39 -3 q 32 -3 27 1 q 23 6 23 13 q 23 28 45 51 q 76 87 106 135 z"},"&":{"x_min":0,"x_max":573,"ha":573,"o":"m 295 411 q 316 430 333 456 q 350 483 358 513 q 367 542 367 574 q 367 610 351 610 q 335 610 319 591 q 303 572 294 542 q 284 512 284 478 q 284 460 287 445 q 289 431 295 411 z m 210 227 q 193 206 186 189 q 179 172 179 150 q 179 123 197 104 q 214 86 241 86 q 264 86 289 101 q 281 110 277 117 q 268 130 258 145 q 249 160 224 203 q 219 212 216 217 q 213 222 210 227 z m 330 54 l 305 39 q 253 11 220 -1 q 187 -12 151 -12 q 96 -12 61 20 q 26 52 26 102 q 26 143 56 187 q 86 231 156 291 q 166 299 170 303 q 174 306 178 310 q 165 372 165 417 q 165 484 194 543 q 224 603 272 638 q 321 673 375 673 q 416 673 447 659 q 478 646 495 620 q 511 594 511 561 q 511 537 501 512 q 491 487 473 467 q 442 431 419 410 q 396 389 324 333 q 335 306 353 282 q 363 267 377 251 q 400 224 435 194 q 443 196 451 204 q 455 208 457 208 q 461 208 465 203 q 467 199 467 198 q 467 195 462 189 q 458 185 455 178 q 497 146 531 128 q 558 115 558 106 q 558 94 548 73 q 537 53 521 36 q 504 20 482 9 q 460 -1 440 -1 q 418 -1 402 4 q 385 10 368 21 q 352 33 330 54 z"},"_":{"x_min":0,"x_max":500,"ha":500,"o":"m -6 -125 l -6 -74 l 506 -74 l 506 -125 z"},"v":{"x_min":0,"x_max":431,"ha":431,"o":"m 325 413 l 333 428 q 345 454 353 462 q 361 470 375 470 q 415 470 415 380 q 415 354 411 334 q 407 315 398 298 q 387 274 368 244 q 349 214 324 181 q 300 147 273 114 q 224 52 190 23 q 157 -6 134 -6 q 91 -6 73 46 q 61 79 50 125 q 40 171 34 219 q 28 267 28 311 q 28 373 39 415 q 50 457 69 470 q 86 480 105 480 q 127 480 147 473 q 167 466 178 452 q 188 442 194 425 q 199 408 200 374 q 202 339 202 279 l 202 254 l 202 207 l 202 152 l 204 152 q 213 173 219 184 q 235 215 280 314 q 289 335 315 392 z"},"O":{"x_min":0,"x_max":635,"ha":635,"o":"m 323 531 q 290 497 274 475 q 259 454 241 413 q 228 384 222 351 q 215 322 215 277 q 215 213 227 170 q 239 127 263 106 q 287 84 321 84 q 348 84 377 104 q 405 124 428 156 q 452 189 466 229 q 480 269 480 306 q 480 373 434 446 q 417 475 417 486 q 417 506 439 526 q 464 550 496 568 q 528 587 547 587 q 558 587 570 582 q 582 577 588 569 q 604 553 614 510 q 624 466 624 418 q 624 303 577 205 q 530 108 449 51 q 368 -6 274 -6 q 220 -6 167 14 q 113 34 80 68 q 24 124 24 215 q 24 268 44 327 q 65 386 101 442 q 137 498 184 544 q 231 590 281 617 q 326 642 378 656 q 431 671 470 671 q 526 671 526 654 q 526 647 514 633 q 493 613 477 604 q 461 596 425 586 q 386 574 368 565 q 351 555 323 531 z"},"(":{"x_min":0,"x_max":344,"ha":344,"o":"m 240 500 q 224 469 215 447 q 206 425 196 388 q 177 313 177 237 q 177 91 279 56 q 295 50 295 45 q 295 33 281 22 q 267 11 243 5 q 220 -2 195 -2 q 166 -2 136 9 q 106 19 88 36 q 58 66 40 112 q 23 158 23 211 q 23 272 40 337 q 58 401 89 460 q 121 519 166 569 q 210 619 261 653 q 294 675 310 675 q 321 675 329 671 q 337 668 337 662 q 337 655 311 617 q 281 571 255 527 q 251 521 240 500 z"},"C":{"x_min":0,"x_max":615,"ha":615,"o":"m 390 354 q 409 403 423 464 q 436 524 436 564 q 436 590 424 590 q 413 590 383 560 q 338 512 304 450 q 269 388 250 323 q 232 258 232 196 q 232 147 242 129 q 253 111 282 111 q 308 111 345 125 q 430 159 525 221 q 567 248 578 248 q 594 248 594 232 l 594 231 q 592 209 579 181 q 554 127 535 111 q 504 83 449 56 q 395 29 338 12 q 281 -5 242 -5 q 198 -5 158 12 q 119 29 89 58 q 60 87 43 126 q 27 166 27 210 q 27 244 38 283 q 48 322 69 365 q 89 408 115 446 q 130 468 147 489 q 163 509 183 529 q 203 548 226 566 q 250 584 269 597 q 303 620 340 637 q 376 654 408 663 q 439 671 465 671 q 529 671 565 638 q 601 604 601 546 q 601 484 571 417 q 541 350 490 300 q 456 264 421 244 q 387 223 360 223 q 336 223 336 246 q 336 257 349 276 q 368 302 390 354 z"},"W":{"x_min":0,"x_max":813,"ha":813,"o":"m 360 288 l 358 288 q 320 215 280 154 q 231 82 198 47 q 180 30 153 17 q 126 4 107 4 q 102 4 94 7 q 86 10 81 16 q 56 43 41 154 q 26 265 26 424 q 26 553 45 595 q 53 613 67 625 q 82 637 111 648 q 136 658 163 665 q 190 672 206 672 q 220 672 228 665 q 236 658 236 646 q 236 641 234 633 q 224 587 215 505 q 208 450 206 416 q 204 382 202 323 q 200 264 199 206 l 201 204 q 223 232 248 272 q 257 287 265 299 q 273 312 283 329 q 306 369 323 407 q 332 425 339 443 q 412 606 442 632 q 456 644 492 655 q 528 666 557 666 q 576 666 588 657 q 600 649 600 635 q 600 622 587 584 q 562 510 546 423 q 530 335 530 267 q 530 128 584 128 q 600 128 616 151 q 632 175 643 211 q 655 247 662 295 q 670 343 670 394 q 670 424 667 466 q 666 477 666 487 q 666 541 725 595 q 754 623 768 623 q 802 623 802 496 q 802 406 782 323 q 758 224 715 155 q 692 117 661 83 q 630 48 600 27 q 562 0 518 0 q 438 0 399 62 q 360 125 360 255 z"},"A":{"x_min":0,"x_max":729,"ha":729,"o":"m 401 467 l 311 277 l 444 277 l 403 467 z m 359 595 l 329 649 q 340 658 350 661 q 388 674 441 674 q 495 674 524 643 q 549 616 565 568 q 582 520 595 430 q 603 385 608 362 q 625 298 631 280 q 636 262 651 223 q 656 212 664 192 q 672 171 679 154 q 695 116 728 53 q 687 24 659 12 q 630 -1 607 -1 q 578 -1 559 10 q 540 21 524 46 q 505 79 487 136 q 485 142 482 150 q 479 158 476 168 q 419 144 387 144 q 369 144 356 145 q 345 146 252 148 l 247 138 q 220 81 196 51 q 173 21 142 9 q 112 -3 66 -3 q 40 -3 28 3 q 17 9 17 22 q 17 38 71 111 q 90 136 99 151 q 48 161 48 187 q 48 208 89 251 q 108 271 125 277 q 142 283 184 283 q 223 355 234 375 q 245 395 262 425 q 279 455 301 493 q 322 531 359 595 z"},"f":{"x_min":0,"x_max":367,"ha":367,"o":"m 205 105 l 204 78 q 197 -19 187 -80 q 176 -141 162 -155 q 144 -175 104 -175 q 62 -175 43 -158 q 36 -150 33 -143 q 31 -136 31 -118 l 31 -114 l 31 -109 l 31 -103 q 32 34 57 173 q 82 312 123 426 q 164 540 213 606 q 262 673 310 673 q 332 673 343 658 q 354 643 354 615 q 354 574 345 527 q 336 480 324 451 q 312 422 299 422 q 287 422 287 463 l 287 472 l 287 478 q 287 519 285 532 q 284 544 278 549 q 272 538 270 524 q 258 465 251 418 q 244 371 229 264 q 229 258 228 251 q 227 244 226 238 l 233 238 q 239 238 244 239 q 249 239 259 239 q 277 241 292 241 q 350 241 350 211 q 350 195 339 173 q 328 151 313 136 q 298 122 279 115 q 259 108 223 106 q 215 106 212 106 q 209 105 205 105 z"},"Q":{"x_min":0,"x_max":677,"ha":677,"o":"m 461 65 q 432 44 400 29 q 368 13 334 5 q 301 -3 274 -3 q 203 -3 146 26 q 90 54 59 106 q 28 158 28 223 q 28 279 51 347 q 74 415 113 474 q 125 492 142 512 q 159 532 177 548 q 195 563 216 577 q 256 604 306 625 q 355 646 406 657 q 456 669 501 669 q 532 669 544 663 q 556 657 556 643 q 556 630 542 616 q 527 603 476 589 q 410 573 367 548 q 325 524 298 488 q 265 443 244 385 q 224 326 224 274 q 224 205 260 157 q 296 109 349 109 q 381 109 410 128 q 409 130 403 139 q 384 170 368 185 q 352 201 325 212 q 307 221 300 227 q 293 234 293 243 q 293 256 312 266 q 332 276 360 276 q 395 276 427 261 q 458 246 494 212 q 503 239 504 241 q 512 266 512 304 q 512 335 507 359 q 501 384 491 406 q 480 429 460 455 q 440 480 440 494 q 440 527 491 558 q 531 582 560 582 q 605 582 631 541 q 656 500 656 428 q 656 340 616 255 q 597 216 555 155 q 570 141 583 133 q 596 125 613 119 q 630 113 666 105 q 665 89 658 68 q 652 47 643 30 q 635 13 626 6 q 615 -4 594 -4 q 557 -4 526 12 q 495 28 461 65 z"},"w":{"x_min":0,"x_max":677,"ha":677,"o":"m 302 202 l 281 158 q 252 99 228 62 q 204 25 184 10 q 163 -6 140 -6 q 117 -6 99 14 q 65 54 42 166 q 24 256 24 322 q 24 373 36 404 q 47 434 72 448 q 97 463 137 463 q 158 463 168 456 q 177 448 181 426 q 184 404 184 360 q 184 279 192 207 q 193 203 197 168 l 199 168 q 203 175 205 180 q 207 184 208 188 q 210 193 212 197 q 214 200 217 207 q 243 266 271 342 q 304 429 316 448 q 319 453 325 458 q 349 475 392 475 q 415 475 426 467 q 438 458 442 438 q 446 418 447 372 q 447 335 455 270 q 464 204 474 153 q 478 135 489 86 l 491 86 q 502 118 506 136 q 520 198 520 315 l 520 337 q 520 372 526 392 q 533 413 549 430 q 566 447 588 458 q 611 469 628 469 q 648 469 656 453 q 665 438 665 402 q 665 322 632 202 q 603 100 556 14 q 541 -13 527 -30 q 513 -47 498 -54 q 482 -61 463 -61 q 394 -61 349 28 q 336 55 326 90 q 315 125 308 170 q 306 178 304 202 z"},"-":{"x_min":0,"x_max":250,"ha":250,"o":"m 83 152 q 57 152 41 167 q 25 181 25 204 q 25 218 33 240 q 41 263 50 271 q 72 292 144 292 q 195 292 217 283 q 239 273 239 251 q 239 225 225 206 q 212 188 179 176 q 114 152 83 152 z"},"E":{"x_min":0,"x_max":615,"ha":615,"o":"m 431 221 l 253 222 l 253 210 q 253 174 273 145 q 294 116 319 116 q 344 116 392 135 q 440 153 502 188 l 519 198 q 537 208 543 213 q 572 231 579 231 q 588 231 588 215 q 588 197 582 175 q 575 152 565 132 q 556 111 546 102 q 518 77 451 48 q 383 19 314 2 q 291 -3 271 -3 q 204 -3 149 24 q 93 51 63 99 q 32 146 32 204 q 32 252 52 310 q 72 367 108 425 q 145 482 190 529 q 229 570 278 603 q 327 637 373 655 q 419 673 458 673 q 519 673 562 638 q 605 604 605 555 q 605 534 597 508 q 589 483 576 464 q 562 443 536 424 q 509 404 475 390 q 435 374 406 374 q 377 374 377 388 q 377 396 393 414 q 411 430 427 457 q 442 486 454 525 q 466 564 466 586 q 466 604 455 604 q 438 604 394 566 q 349 529 323 492 q 299 458 283 423 q 268 387 262 353 l 523 353 q 566 353 566 331 q 566 311 518 264 q 471 221 431 221 z"},"s":{"x_min":0,"x_max":448,"ha":448,"o":"m 171 -21 q 200 -20 223 7 q 247 34 247 65 q 247 86 233 99 q 218 114 165 129 q 87 151 64 179 q 42 202 42 233 q 42 289 83 345 q 124 401 187 437 q 250 473 315 473 q 346 473 374 458 q 401 444 417 420 q 433 396 433 367 q 433 339 416 310 q 398 280 371 260 q 345 240 321 240 q 307 240 297 246 q 287 252 287 259 q 287 266 291 279 q 302 321 302 352 q 302 383 283 410 q 259 394 252 384 q 233 362 223 335 q 212 307 212 282 q 212 265 220 254 q 228 244 246 236 q 265 229 302 220 q 364 205 389 191 q 395 188 407 177 q 426 157 426 125 q 426 91 405 57 q 384 22 340 -14 q 293 -54 247 -71 q 200 -88 144 -88 q 90 -88 59 -66 q 28 -45 28 -8 q 28 19 48 46 q 69 73 99 90 q 130 107 159 107 q 181 107 181 97 q 181 92 175 81 q 156 47 156 18 q 156 -2 171 -21 z"},">":{"x_min":0,"x_max":667,"ha":667,"o":"m 62 604 l 605 378 l 605 283 l 62 56 l 62 170 l 462 330 l 62 491 z"},"l":{"x_min":0,"x_max":458,"ha":458,"o":"m 289 365 q 309 420 322 481 q 335 541 335 573 q 335 582 330 582 q 322 582 303 547 q 283 512 270 476 q 242 396 226 344 q 211 292 205 256 q 199 220 199 183 q 199 151 206 137 q 213 122 229 122 q 256 122 289 146 q 322 169 349 208 q 370 237 382 237 q 397 237 397 213 q 397 161 364 111 q 332 61 280 30 q 229 -1 175 -1 q 109 -1 67 41 q 26 82 26 149 q 26 204 49 277 q 73 351 112 425 q 151 500 198 560 q 245 621 291 653 q 319 674 354 674 q 380 674 402 657 q 423 641 435 612 q 447 583 447 547 q 447 470 417 397 q 387 324 333 270 q 308 244 284 229 q 261 215 243 215 q 226 215 226 228 q 226 235 239 256 q 256 283 279 337 q 281 342 283 348 q 286 354 289 365 z"},"8":{"x_min":0,"x_max":490,"ha":490,"o":"m 153 280 l 190 305 q 139 351 116 390 q 93 429 93 470 q 93 504 108 536 q 124 567 152 591 q 181 615 218 629 q 255 642 296 642 q 358 642 358 621 q 358 614 343 613 q 312 607 294 582 q 280 563 269 535 q 259 506 259 484 q 259 433 299 404 q 326 433 342 464 q 358 496 358 524 q 358 551 343 568 q 339 572 339 574 q 339 582 356 593 q 382 610 409 610 q 427 610 443 601 q 458 592 467 575 q 475 559 475 538 q 475 494 448 453 q 421 413 355 358 q 395 318 414 283 q 432 247 432 211 q 432 171 411 131 q 389 92 353 60 q 316 28 271 9 q 227 -10 183 -10 q 114 -10 71 25 q 28 60 28 115 q 28 162 54 196 q 80 230 153 280 z m 246 262 q 215 235 198 197 q 181 158 181 116 q 181 84 189 66 q 197 48 211 48 q 216 48 225 52 q 233 56 237 60 q 258 81 274 116 q 290 150 290 175 q 290 206 278 228 q 267 251 246 262 z"},"\\":{"x_min":0,"x_max":469,"ha":469,"o":"m 417 80 l 419 73 l 422 66 q 454 -15 454 -32 q 454 -45 444 -55 q 434 -64 418 -64 q 406 -64 393 -58 q 379 -51 368 -40 q 351 -21 297 71 q 244 162 195 259 l 87 474 q 69 508 56 542 q 42 576 33 604 q 25 631 25 644 q 25 672 41 689 q 57 707 82 707 q 110 707 138 683 q 165 659 193 611 q 221 563 254 483 z"},"e":{"x_min":0,"x_max":427,"ha":427,"o":"m 194 152 q 216 167 228 182 q 254 214 268 255 q 279 282 286 315 q 292 348 292 377 q 292 404 281 404 q 265 404 233 335 q 214 293 202 252 q 190 211 190 181 q 190 171 194 152 z m 195 136 q 200 107 233 107 q 270 107 328 150 q 362 175 374 175 q 389 175 401 167 q 414 159 414 151 q 414 142 400 128 q 374 102 340 77 q 307 53 275 36 q 244 20 213 10 q 182 1 157 1 q 96 1 60 36 q 23 71 23 129 q 23 173 42 229 q 62 285 94 334 q 133 391 189 429 q 258 475 322 475 q 368 475 394 446 q 420 417 420 366 q 420 327 399 284 q 378 241 338 201 q 305 168 273 149 q 241 131 217 131 q 206 131 195 136 z"},"b":{"x_min":0,"x_max":469,"ha":469,"o":"m 306 208 q 294 204 289 204 q 272 204 261 217 q 250 229 250 249 q 250 288 277 349 q 305 410 335 439 q 357 461 385 461 q 406 461 422 447 q 438 432 446 405 q 454 378 454 342 q 454 251 416 171 q 378 92 314 44 q 251 -3 178 -3 q 131 -3 96 20 q 61 42 41 84 q 22 126 22 182 q 22 235 39 301 q 56 366 87 434 q 118 502 160 567 q 205 637 263 676 q 303 704 347 704 q 392 704 419 677 q 446 649 446 604 q 446 572 421 536 q 396 501 359 478 q 322 455 286 455 q 269 455 269 464 q 269 471 283 489 q 307 518 323 556 q 339 595 339 623 q 339 649 331 649 q 321 649 301 617 q 280 584 264 543 q 226 443 206 354 q 185 264 185 201 q 185 154 200 121 q 216 89 238 89 q 266 89 284 120 q 303 152 306 208 z"},"%":{"x_min":0,"x_max":854,"ha":854,"o":"m 288 691 q 292 693 296 693 q 311 693 325 675 q 339 658 349 630 q 358 603 358 575 q 358 528 338 470 q 318 413 287 365 q 256 317 221 293 q 185 268 141 268 q 92 268 58 308 q 24 349 24 408 q 24 451 37 497 q 49 542 72 583 q 94 625 121 651 q 148 677 183 692 q 218 707 251 707 q 272 707 288 691 z m 255 677 l 259 679 l 257 681 q 233 676 212 654 q 182 621 159 561 q 137 501 137 452 q 137 426 146 398 q 155 370 169 351 q 183 332 196 332 q 207 332 219 348 q 231 364 241 390 q 272 469 272 534 q 272 569 262 597 q 252 625 236 640 q 230 646 230 649 q 230 655 251 673 q 252 674 253 675 q 254 676 255 677 z m 772 310 q 776 311 781 311 q 795 311 810 294 q 825 278 834 251 q 843 225 843 196 q 843 167 834 130 q 826 93 812 58 q 798 24 779 -8 q 759 -40 739 -61 q 689 -113 634 -113 q 579 -113 545 -75 q 512 -37 512 25 q 512 82 531 137 q 549 192 580 234 q 611 276 651 301 q 690 325 733 325 q 765 325 772 310 z m 747 298 l 747 296 l 745 298 q 727 294 718 289 q 708 283 697 269 q 669 237 649 187 q 623 122 623 63 q 623 10 656 -31 q 672 -52 682 -52 q 691 -52 705 -35 q 718 -18 728 9 q 742 44 750 81 q 758 118 758 146 q 758 231 712 267 q 739 291 747 298 z m 346 289 l 355 303 q 374 332 413 392 q 452 453 491 508 q 529 563 546 586 q 562 608 576 626 q 615 674 642 692 q 660 705 678 705 q 692 705 705 697 q 717 688 724 674 q 732 659 732 645 q 732 629 724 611 q 717 592 701 567 q 686 542 651 492 q 647 486 641 478 q 636 470 635 469 l 618 444 l 602 422 q 457 215 321 47 q 296 15 272 -8 q 239 -42 211 -42 q 195 -42 184 -32 q 173 -22 173 -8 q 173 17 305 222 q 310 229 315 238 q 320 246 326 257 z"},"m":{"x_min":0,"x_max":771,"ha":771,"o":"m 558 177 l 425 40 q 399 14 383 5 q 367 -5 348 -5 q 318 -5 298 17 q 278 40 278 72 q 278 92 284 115 q 290 139 308 186 q 312 196 315 203 q 318 210 320 215 l 318 217 q 271 167 225 112 q 187 66 165 44 q 142 21 124 10 q 106 -1 92 -1 q 60 -1 42 24 q 23 49 23 92 q 23 146 70 267 q 112 375 135 411 q 168 462 212 462 q 238 462 256 449 q 273 437 273 417 q 273 380 245 305 q 234 277 223 242 l 225 240 q 243 260 283 309 q 352 394 387 425 q 433 467 470 467 q 487 467 502 456 q 517 444 526 426 q 535 407 535 386 q 535 365 505 279 q 499 261 495 250 q 492 240 489 233 l 491 231 q 498 238 503 243 q 509 249 515 255 q 522 261 528 266 q 541 279 594 333 q 629 372 649 386 q 669 401 688 401 q 718 401 734 380 q 750 359 750 319 q 750 294 742 240 q 735 180 733 145 q 730 111 730 97 q 730 87 731 71 q 732 55 735 37 q 738 19 743 -3 q 749 -30 751 -45 q 747 -62 725 -75 q 704 -87 678 -87 q 638 -87 603 -51 q 587 -34 579 -17 q 570 0 567 23 q 563 46 563 84 q 563 109 569 187 l 567 189 z"},"#":{"x_min":0,"x_max":668,"ha":668,"o":"m 38 497 l 189 497 l 230 684 l 322 684 l 281 497 l 454 497 l 494 684 l 587 684 l 547 497 l 629 497 l 629 404 l 529 404 l 498 256 l 629 256 l 629 164 l 481 164 l 440 -21 l 348 -21 l 388 164 l 213 164 l 175 -21 l 82 -21 l 121 164 l 38 164 l 38 256 l 140 256 l 171 404 l 38 404 z m 263 404 l 233 257 l 406 257 l 437 404 z"},",":{"x_min":0,"x_max":219,"ha":219,"o":"m 52 -87 q 23 -87 23 -54 q 23 -20 46 36 q 68 92 94 122 q 106 136 121 142 q 136 148 162 148 q 207 148 207 121 l 207 119 q 204 87 187 53 q 167 11 154 -12 q 140 -35 125 -50 q 109 -67 89 -77 q 69 -87 52 -87 z"},"n":{"x_min":0,"x_max":510,"ha":510,"o":"m 235 258 l 264 292 q 309 341 335 365 q 361 390 382 400 q 402 411 424 411 q 458 411 473 393 q 487 374 487 328 q 487 309 483 272 q 477 223 477 179 q 477 130 482 100 q 485 82 492 63 q 497 45 497 39 q 497 31 491 27 q 476 14 451 4 q 426 -6 409 -6 q 381 -6 359 13 q 336 32 323 66 q 311 100 311 142 q 311 170 317 209 l 315 211 q 294 188 281 174 q 268 160 257 148 q 202 85 164 35 q 149 16 137 1 q 119 -17 96 -17 q 65 -17 45 6 q 26 30 26 67 q 26 90 31 123 q 37 156 46 194 q 55 232 67 272 q 80 312 94 348 q 117 408 149 442 q 171 464 202 464 q 253 464 253 398 q 253 350 233 260 z"},"h":{"x_min":0,"x_max":500,"ha":500,"o":"m 354 595 l 354 603 q 354 621 349 621 q 343 621 329 602 q 316 582 305 558 q 278 497 258 429 q 237 361 226 293 q 222 267 218 236 l 220 234 q 269 284 293 305 q 317 326 355 353 q 403 386 434 386 q 454 386 465 372 q 476 357 476 332 q 476 317 470 290 q 460 232 460 193 q 460 175 463 155 q 465 139 479 92 q 490 56 490 52 q 490 45 474 35 q 422 1 379 1 q 343 1 321 36 q 299 70 299 126 q 299 148 303 179 l 301 181 q 231 110 208 85 q 121 1 74 1 q 53 1 39 30 q 25 58 25 104 q 25 203 86 356 q 110 416 138 470 q 165 524 190 564 q 208 592 228 613 q 248 633 268 647 q 288 661 309 668 q 330 675 351 675 q 403 675 436 643 q 469 610 469 560 q 469 525 449 485 q 429 446 393 410 q 370 388 341 370 q 312 353 296 353 q 291 353 287 356 q 283 360 283 365 q 283 373 296 397 q 311 424 325 463 q 339 501 346 536 q 354 571 354 595 z"},"z":{"x_min":0,"x_max":427,"ha":427,"o":"m 277 377 l 256 369 q 141 330 86 330 q 49 330 49 363 q 49 381 60 403 q 71 425 86 440 q 104 459 121 467 q 137 474 161 474 q 169 474 180 474 q 190 474 204 473 q 301 469 334 468 q 367 466 386 462 q 403 458 412 450 q 422 441 422 431 q 422 400 251 147 l 233 120 l 256 120 q 318 120 376 143 q 391 148 394 148 q 409 148 409 122 q 409 80 386 45 q 364 10 323 -10 q 283 -30 235 -30 q 175 -30 126 -19 q 77 -8 48 11 q 20 30 20 54 q 20 67 32 84 q 44 102 80 139 q 86 146 107 169 l 123 186 l 140 206 l 152 220 l 164 233 q 206 279 235 316 q 245 329 253 340 q 261 351 279 375 z"},"B":{"x_min":0,"x_max":656,"ha":656,"o":"m 353 562 l 290 348 q 296 347 302 347 q 328 347 362 371 q 405 401 428 435 q 452 469 452 501 q 452 568 382 568 q 362 568 353 562 z m 280 311 q 278 305 276 297 q 274 289 272 282 q 249 205 230 156 q 210 108 189 74 q 177 54 154 31 q 213 13 238 7 q 263 2 288 2 q 317 2 339 10 q 361 19 381 38 q 410 66 428 105 q 446 145 446 181 q 446 221 418 249 q 404 263 387 270 q 371 277 341 282 q 313 288 303 292 q 292 297 280 311 z m 67 247 l 124 423 q 141 470 164 515 q 162 515 153 510 q 119 496 105 496 q 85 496 85 511 q 85 527 101 558 q 116 588 132 603 q 167 636 240 655 q 313 674 404 674 q 458 674 503 665 q 547 655 578 637 q 609 619 626 593 q 642 567 642 535 q 642 491 624 456 q 605 421 565 391 q 521 358 481 347 q 477 346 466 344 l 466 342 q 637 320 637 200 q 637 176 629 150 q 621 125 606 100 q 590 75 569 54 q 522 9 459 -30 q 395 -69 331 -93 q 266 -117 220 -117 q 182 -117 146 -108 q 111 -100 90 -85 q 69 -71 69 -54 q 69 -39 77 -26 q 86 -13 109 7 l 107 9 q 94 4 81 4 q 54 4 38 20 q 21 35 21 62 q 21 77 35 133 q 48 188 67 247 z"},"K":{"x_min":0,"x_max":688,"ha":688,"o":"m 320 420 l 419 527 q 460 566 482 585 q 505 604 538 626 q 596 665 644 665 q 680 665 680 638 q 680 618 670 597 q 661 577 644 560 q 614 530 530 479 q 466 440 430 410 q 436 374 443 345 q 450 316 459 294 q 468 271 484 240 q 502 205 523 176 q 576 104 628 82 q 644 74 644 68 q 644 56 627 41 q 604 18 573 5 q 541 -8 508 -8 q 448 -8 401 24 q 354 55 328 112 q 299 176 290 267 q 288 283 288 302 l 286 302 q 266 273 257 255 q 249 237 230 191 q 208 132 189 100 q 171 68 147 48 q 125 28 97 15 q 70 2 52 2 q 39 2 30 12 q 21 22 21 36 q 21 45 22 50 q 45 142 72 237 q 99 332 127 416 q 156 500 180 559 q 204 618 217 634 q 232 652 263 663 q 294 675 327 675 q 357 675 370 667 q 383 659 383 640 q 383 615 331 472 q 328 462 320 440 q 312 418 308 408 l 310 406 z"},"R":{"x_min":0,"x_max":625,"ha":625,"o":"m 172 520 l 185 553 q 170 552 155 549 q 145 547 128 547 q 104 547 104 571 q 104 581 110 595 q 116 609 124 616 q 141 632 196 643 q 250 653 323 653 q 379 653 430 638 q 481 623 519 596 q 556 569 576 535 q 597 500 597 460 q 597 417 579 379 q 561 342 528 314 q 506 295 487 286 q 468 276 432 265 q 441 248 448 239 q 456 229 472 213 q 516 173 598 141 q 602 139 608 137 q 599 96 591 77 q 583 58 567 35 q 537 -5 494 -5 q 471 -5 436 12 q 402 30 380 53 q 363 73 348 96 q 334 118 319 147 q 305 175 294 202 q 284 229 279 250 q 278 254 278 261 q 278 271 284 277 q 290 283 305 288 q 327 296 341 305 q 355 315 377 335 q 401 362 415 398 q 429 434 429 470 q 429 514 409 538 q 389 562 345 572 q 303 419 262 284 l 252 247 q 227 159 209 117 q 192 74 175 57 q 158 40 122 23 q 85 7 65 7 q 25 7 25 52 q 25 70 36 115 q 47 161 70 234 q 93 307 118 376 q 143 446 172 520 z"},"T":{"x_min":0,"x_max":469,"ha":469,"o":"m 316 318 l 311 297 q 309 286 307 279 q 305 271 303 265 q 302 260 301 254 q 266 104 244 66 q 234 49 215 36 q 153 -4 118 -4 q 94 -4 77 14 q 60 32 60 58 q 60 106 102 235 q 115 276 125 306 q 136 336 151 375 q 166 413 184 456 q 203 499 211 516 q 146 507 87 507 q 27 507 27 549 q 27 576 66 617 q 92 644 115 655 q 137 665 169 665 q 189 665 225 664 q 261 663 324 658 l 338 657 l 351 656 q 405 653 422 649 q 439 645 451 634 q 461 623 461 608 q 461 592 455 576 q 449 560 440 552 q 428 538 371 529 q 366 529 361 528 l 351 526 q 363 514 363 500 q 363 486 349 441 q 345 430 328 367 l 321 338 z"},"P":{"x_min":0,"x_max":594,"ha":594,"o":"m 184 559 l 191 576 q 175 576 164 573 q 152 571 137 565 q 119 558 112 558 q 104 558 98 564 q 93 571 93 580 q 93 599 108 619 q 124 640 146 648 q 175 660 221 667 q 268 674 313 674 q 364 674 405 667 q 446 659 478 643 q 509 627 533 603 q 557 579 570 547 q 583 516 583 480 q 583 448 570 408 q 557 368 534 330 q 511 292 484 265 q 452 234 404 213 q 355 192 315 192 q 298 192 285 198 q 272 204 272 213 q 272 227 282 239 q 292 250 320 268 q 343 282 364 301 q 388 328 400 358 q 411 388 411 430 q 411 470 397 498 q 384 526 353 548 l 286 331 l 274 293 q 266 271 253 216 q 229 122 208 85 q 199 69 184 53 q 161 33 125 17 q 89 2 63 2 q 46 2 36 12 q 26 22 26 40 q 26 60 36 99 q 46 137 77 237 l 86 264 l 95 294 z"},"|":{"x_min":0,"x_max":588,"ha":588,"o":"m 241 696 l 347 696 l 347 -135 l 241 -135 z"},"t":{"x_min":0,"x_max":344,"ha":344,"o":"m 118 472 l 120 478 q 152 569 176 606 q 187 624 207 637 q 245 661 278 661 q 297 661 308 652 q 318 644 318 627 q 318 616 303 581 q 278 523 266 473 q 274 472 282 470 q 312 466 321 460 q 330 455 330 440 q 330 414 317 392 q 304 370 282 360 q 266 353 230 350 q 224 331 216 298 q 211 269 206 217 q 203 198 203 181 q 203 104 278 104 l 281 104 l 282 104 q 291 104 291 101 q 291 93 274 75 q 258 56 238 42 q 216 27 191 19 q 166 10 145 10 q 94 10 62 44 q 30 79 30 136 q 30 161 38 200 q 47 240 65 306 q 68 318 71 331 q 75 344 75 346 q 56 347 47 354 q 39 362 39 380 q 39 411 63 438 q 86 465 118 472 z"},"M":{"x_min":0,"x_max":1083,"ha":1083,"o":"m 599 255 l 609 277 q 724 537 776 615 q 784 626 790 632 q 796 638 803 643 q 811 648 823 653 q 858 668 914 668 q 943 668 950 663 q 958 658 958 641 q 958 628 957 613 q 953 525 953 488 q 953 394 966 310 q 974 263 990 215 q 1007 172 1023 149 q 1042 124 1054 112 q 1070 96 1070 88 q 1070 73 1044 47 q 1000 5 957 5 q 896 5 846 57 q 821 83 806 114 q 791 145 784 190 q 776 236 774 306 q 771 382 770 392 l 768 392 q 737 333 717 293 q 696 254 683 228 q 670 202 653 166 q 597 51 580 27 q 579 26 576 22 q 573 19 571 17 q 562 9 552 5 q 542 1 534 1 q 514 1 489 27 q 464 52 446 93 q 427 136 415 180 q 403 225 394 286 q 385 348 378 436 l 376 436 q 361 404 354 388 q 347 372 332 338 q 316 304 314 299 q 294 254 272 209 q 250 164 237 139 q 223 115 207 91 q 200 80 181 59 q 152 32 118 16 q 84 1 53 1 q 42 1 33 7 q 24 13 24 22 q 24 30 37 44 q 44 53 69 89 l 97 133 q 124 172 177 273 l 200 317 q 282 474 311 532 q 340 590 340 599 q 340 609 325 622 q 314 631 314 638 q 314 649 342 658 q 371 668 404 668 q 471 668 499 638 q 517 620 532 565 q 547 511 562 407 q 563 401 563 398 q 564 395 564 393 q 565 390 565 386 q 568 373 568 368 q 578 305 583 287 q 589 269 599 255 z"},"g":{"x_min":0,"x_max":550,"ha":550,"o":"m 376 238 l 376 236 l 374 238 q 371 237 366 237 q 357 236 343 236 q 318 236 318 245 q 318 250 324 257 q 343 278 356 312 q 370 346 371 374 q 371 381 372 386 q 373 388 373 390 q 373 391 373 392 q 373 399 364 399 q 345 399 305 358 q 280 332 258 295 q 236 259 224 223 q 212 187 212 158 q 212 130 226 130 q 240 130 295 176 q 320 197 376 238 z m 351 134 l 338 124 q 336 123 333 120 q 330 118 325 114 q 241 48 193 21 q 145 -6 109 -6 q 69 -6 45 23 q 21 52 21 100 q 21 160 55 224 q 89 289 145 342 q 200 396 267 428 q 333 461 395 461 q 456 461 488 440 q 520 419 520 377 q 520 342 492 290 q 512 289 521 278 q 531 267 531 243 q 531 205 515 137 q 500 69 477 11 q 450 -62 399 -115 q 360 -156 303 -185 q 246 -214 205 -214 q 171 -214 144 -187 q 117 -159 117 -125 q 117 -102 129 -77 q 141 -53 159 -35 q 197 3 271 38 q 285 45 292 45 q 295 45 297 42 q 300 40 300 37 q 300 34 294 24 q 279 -1 268 -40 q 257 -79 257 -107 q 257 -140 267 -140 q 272 -140 281 -128 q 289 -116 295 -101 q 336 4 348 94 q 350 107 351 134 z"},"j":{"x_min":0,"x_max":292,"ha":292,"o":"m 161 438 q 188 464 213 464 q 240 464 256 446 q 273 427 273 398 q 273 356 264 311 q 256 265 235 199 q 215 133 170 4 q 155 -41 134 -80 q 114 -119 93 -143 q 86 -151 76 -151 q 55 -151 40 -114 q 25 -78 25 -27 q 25 29 35 71 q 46 114 58 114 q 63 114 70 108 q 72 107 73 106 q 74 106 75 105 q 76 114 77 125 q 78 135 79 143 q 87 240 98 295 q 109 349 127 387 q 138 412 161 438 z m 197 487 q 177 488 165 502 q 153 516 153 540 q 153 570 166 604 q 178 638 196 656 q 212 672 236 672 q 261 672 272 660 q 282 647 282 619 q 282 566 257 526 q 232 487 198 487 z"},"i":{"x_min":0,"x_max":250,"ha":250,"o":"m 97 -5 q 75 -3 57 15 q 39 35 31 57 q 24 80 24 116 q 24 197 54 298 q 84 399 122 445 q 137 464 164 464 q 192 464 210 438 q 227 412 227 370 q 227 308 209 225 q 191 142 159 52 q 146 16 128 3 q 115 -5 98 -5 z m 156 486 q 110 487 110 541 q 110 568 123 603 q 137 639 154 656 q 163 665 172 669 q 181 673 195 673 q 219 673 231 661 q 242 649 242 621 q 242 586 230 555 q 218 524 198 505 q 178 486 157 486 z"},"y":{"x_min":0,"x_max":500,"ha":500,"o":"m 338 335 l 344 356 q 357 405 383 431 q 399 448 421 458 q 442 469 460 469 q 492 469 492 442 q 492 428 483 399 q 475 371 460 334 q 446 298 427 254 q 407 211 384 165 q 341 78 298 18 q 267 -25 234 -58 q 202 -91 167 -118 q 131 -144 100 -157 q 68 -171 42 -171 q 20 -171 20 -152 q 20 -137 27 -116 q 34 -95 46 -76 q 59 -59 79 -45 q 104 -27 154 -5 q 125 44 109 73 q 94 102 76 145 q 36 240 36 318 q 36 377 51 414 q 64 446 99 459 q 127 470 150 470 q 182 470 193 446 q 204 422 212 333 q 221 238 240 145 q 244 131 248 106 l 250 106 q 263 135 279 176 q 284 188 313 262 q 330 307 338 335 z"},"@":{"x_min":0,"x_max":1015,"ha":1015,"o":"m 893 9 l 981 9 q 950 -55 875 -112 q 809 -163 730 -186 q 652 -210 550 -210 q 436 -210 344 -180 q 252 -149 188 -93 q 125 -36 91 46 q 57 128 57 229 q 57 317 84 400 q 110 483 160 551 q 210 618 276 659 q 310 681 354 697 q 398 713 446 721 q 493 729 540 729 q 659 729 755 680 q 851 631 904 543 q 958 456 958 348 q 958 260 916 179 q 875 98 806 48 q 738 -2 664 -2 q 586 -2 574 51 q 571 62 570 80 q 536 42 497 20 q 458 -2 420 -2 q 371 -2 331 27 q 290 56 267 106 q 243 156 243 218 q 243 295 280 367 q 316 440 375 484 q 434 529 496 529 q 588 529 644 439 l 660 515 l 748 515 l 677 187 q 674 175 673 169 q 672 163 670 153 q 663 124 663 111 q 663 99 673 89 q 684 79 697 79 q 713 79 740 94 q 767 109 791 130 q 814 151 831 176 q 848 201 860 229 q 871 257 878 287 q 885 318 885 350 q 885 437 839 507 q 794 578 714 618 q 633 658 535 658 q 449 658 374 627 q 300 596 245 539 q 189 482 159 404 q 129 327 129 237 q 129 119 179 35 q 229 -50 324 -94 q 418 -138 552 -138 q 628 -138 690 -122 q 751 -106 807 -71 q 840 -50 856 -35 q 873 -21 893 9 z m 333 212 q 333 172 347 139 q 360 107 384 89 q 408 71 438 71 q 471 71 503 91 q 535 111 561 146 q 586 181 601 225 q 616 269 616 315 q 616 358 602 390 q 588 422 562 440 q 536 457 501 457 q 470 457 439 437 q 409 417 385 382 q 362 348 347 302 q 333 257 333 212 z"},".":{"x_min":0,"x_max":198,"ha":198,"o":"m 66 -1 q 22 -1 22 29 q 22 38 27 57 q 32 76 37 88 q 52 122 64 132 q 78 145 106 154 q 134 164 156 164 q 186 164 186 129 q 186 96 167 48 q 162 34 156 28 q 149 21 134 15 q 92 -1 66 -1 z"},"p":{"x_min":0,"x_max":552,"ha":552,"o":"m 221 112 q 235 72 273 72 q 300 72 323 96 q 346 120 360 161 q 374 203 374 248 q 374 284 368 311 q 363 337 356 337 q 351 337 331 311 q 311 285 291 251 q 250 185 229 134 q 224 121 221 112 z m 259 321 l 274 349 q 295 387 314 412 q 332 437 346 449 q 360 460 380 468 q 396 474 415 474 q 452 474 481 452 q 509 430 525 389 q 540 348 540 295 q 540 218 506 148 q 471 77 415 34 q 359 -10 300 -10 q 265 -10 242 5 q 219 20 199 55 l 196 47 l 193 36 q 161 -66 142 -114 q 124 -162 110 -173 q 99 -183 85 -183 q 57 -183 42 -156 q 26 -128 26 -79 q 26 -25 38 50 q 49 125 70 203 q 91 281 116 345 q 133 384 153 414 q 173 443 191 456 q 204 464 219 464 q 242 464 254 452 q 266 439 266 417 q 266 398 262 375 q 259 353 257 323 z"},"X":{"x_min":0,"x_max":719,"ha":719,"o":"m 206 438 l 199 455 q 193 467 178 502 q 153 560 142 583 q 130 605 119 617 q 112 623 103 628 q 91 636 91 639 q 91 643 95 646 q 104 655 142 664 q 180 673 211 673 q 252 673 282 652 q 312 631 343 580 q 389 504 429 388 q 450 413 468 439 q 485 464 506 498 q 532 539 538 548 q 544 557 553 569 q 563 581 576 595 q 597 614 628 626 q 660 639 684 639 q 707 639 707 619 q 707 606 687 572 q 667 538 624 480 q 581 422 510 332 q 509 331 503 323 q 498 316 491 307 q 484 299 479 293 q 504 236 526 205 q 542 182 558 162 q 575 142 594 124 q 617 101 645 84 q 656 76 656 72 q 656 65 648 59 q 632 44 608 31 q 584 17 562 10 q 539 3 519 3 q 457 3 405 51 q 386 70 375 86 q 365 102 347 136 l 317 104 q 233 15 157 -48 q 81 -110 56 -110 q 42 -110 33 -96 q 24 -82 24 -60 q 24 -32 34 -4 q 44 24 59 39 q 68 48 108 76 q 182 124 235 172 q 259 193 299 237 l 221 404 z"},"*":{"x_min":0,"x_max":333,"ha":333,"o":"m 135 553 l 130 558 l 126 563 q 81 612 81 626 q 81 641 104 655 q 145 680 163 680 q 177 680 190 664 q 203 648 212 620 l 223 630 q 266 675 284 675 q 297 675 306 666 q 315 658 315 645 q 315 633 305 619 q 294 605 264 575 l 258 569 l 253 563 q 271 543 300 522 q 312 513 318 508 q 323 502 323 498 q 323 479 286 479 q 266 479 250 484 q 233 489 201 507 l 195 510 l 189 514 q 160 501 147 497 q 134 493 116 493 q 93 493 72 504 q 51 516 51 527 q 51 533 56 537 q 61 541 67 541 l 72 541 l 77 541 q 109 541 135 553 z"},"Y":{"x_min":0,"x_max":688,"ha":688,"o":"m 284 551 l 288 514 q 290 505 291 484 q 302 350 326 245 q 337 201 352 160 q 373 201 394 248 q 402 266 409 281 q 416 297 418 302 q 420 308 427 323 q 437 348 460 409 q 475 450 480 463 q 485 477 500 509 q 518 549 549 580 q 566 598 589 615 q 611 631 631 641 q 651 650 664 650 q 683 650 683 635 q 683 621 673 599 q 646 532 599 435 q 553 338 504 246 q 456 153 422 100 q 395 55 367 18 q 315 -54 274 -92 q 232 -129 180 -152 q 153 -164 120 -170 q 96 -174 82 -174 q 57 -174 42 -165 q 27 -156 27 -140 q 27 -122 44 -86 q 62 -50 80 -30 q 92 -18 124 -18 q 159 -18 183 -10 q 200 -5 217 3 q 235 11 257 26 q 219 90 192 146 q 165 201 146 255 q 121 325 105 405 q 89 485 89 545 q 89 580 97 597 q 104 615 124 627 q 152 645 188 658 q 223 671 245 671 q 264 671 271 657 q 277 644 279 600 q 281 568 284 551 z"},"c":{"x_min":0,"x_max":385,"ha":385,"o":"m 293 471 q 330 470 352 450 q 374 430 374 396 q 374 367 357 337 q 340 307 315 288 q 289 269 263 269 q 248 269 248 280 q 248 284 254 297 q 273 329 273 371 q 273 392 268 392 q 261 392 249 375 q 236 357 227 333 q 212 295 202 253 q 192 210 192 181 q 192 148 202 129 q 212 110 230 110 q 247 110 274 127 q 302 145 327 171 q 337 184 345 184 q 357 184 357 171 q 357 111 310 62 q 278 30 236 10 q 194 -10 161 -10 q 103 -10 64 27 q 26 63 26 119 q 26 175 51 236 q 75 297 118 353 q 161 408 215 445 q 254 471 291 471 z"},"!":{"x_min":0,"x_max":365,"ha":365,"o":"m 105 180 q 72 180 72 213 q 72 221 77 245 q 117 419 163 545 q 174 576 189 593 q 207 612 245 626 q 282 640 318 640 q 351 640 351 617 q 351 591 285 425 q 217 256 206 241 q 196 227 177 213 q 157 199 137 189 q 117 180 105 180 z m 70 -2 q 51 -2 40 9 q 28 19 28 36 q 28 66 60 116 q 66 125 72 131 q 86 146 109 155 q 131 164 152 164 q 171 164 183 156 q 195 147 195 134 q 195 117 186 92 q 177 67 165 47 q 158 36 142 25 q 102 -2 70 -2 z"},"/":{"x_min":0,"x_max":469,"ha":469,"o":"m 103 185 l 230 498 q 257 565 285 613 q 313 660 341 683 q 369 707 395 707 q 421 707 437 689 q 453 670 453 642 q 453 623 431 566 q 409 509 381 455 l 275 246 q 244 186 210 125 q 177 63 148 17 q 120 -30 110 -40 q 100 -51 86 -58 q 72 -64 58 -64 q 44 -64 33 -54 q 23 -44 23 -31 q 23 -7 94 163 q 95 167 96 169 q 98 172 98 175 z"},"[":{"x_min":0,"x_max":385,"ha":385,"o":"m 56 335 l 59 380 q 61 406 62 421 q 66 481 71 523 q 75 564 81 595 q 87 625 94 640 q 101 655 110 661 q 130 676 204 676 q 301 676 339 662 q 378 648 378 614 q 378 587 369 573 q 359 558 342 558 q 334 558 323 560 q 295 565 262 565 q 247 565 232 564 l 228 544 l 202 390 l 194 349 q 159 169 148 122 q 145 108 143 100 l 175 101 q 185 102 206 102 q 253 102 271 95 q 288 88 288 71 q 288 58 281 39 q 275 20 267 12 q 258 4 235 1 q 212 -3 175 -3 q 95 -3 67 0 q 40 2 31 11 q 23 21 23 45 q 23 72 37 171 q 53 299 56 335 z"},"6":{"x_min":0,"x_max":510,"ha":510,"o":"m 244 379 q 227 379 209 359 q 191 339 179 308 q 168 277 168 247 q 168 207 183 172 q 199 138 226 117 q 253 96 282 96 q 298 96 307 105 q 323 123 333 164 q 343 204 343 250 q 343 291 331 320 q 319 349 297 364 q 275 379 244 379 z m 299 467 l 269 432 l 271 430 q 336 473 383 473 q 418 473 446 456 q 473 439 489 409 q 504 380 504 342 q 504 296 489 247 q 474 198 446 152 q 418 106 381 71 q 348 39 299 20 q 250 1 203 1 q 113 1 65 39 q 18 78 18 151 q 18 216 60 312 q 102 407 190 542 q 225 597 247 621 q 258 633 268 638 q 278 643 299 646 q 335 652 373 652 q 430 652 430 621 q 430 605 394 573 q 373 556 326 499 z"},"r":{"x_min":0,"x_max":324,"ha":324,"o":"m 191 149 l 189 139 q 189 131 187 115 q 185 91 182 76 q 178 61 171 51 q 165 41 153 30 q 117 -3 81 -3 q 52 -3 38 19 q 24 40 24 88 q 24 126 32 182 q 41 238 53 282 l 57 295 q 57 298 60 307 q 78 374 93 406 q 108 438 130 457 q 149 472 173 472 q 208 472 215 430 q 222 436 228 444 q 242 461 250 467 q 258 472 268 472 q 310 472 310 389 q 310 344 300 301 q 291 259 276 232 q 261 205 246 205 q 230 205 230 266 q 230 298 226 317 q 223 335 215 345 q 200 318 196 220 q 192 164 191 149 z"},"2":{"x_min":0,"x_max":448,"ha":448,"o":"m 161 246 l 169 256 q 202 306 216 331 q 229 355 238 382 q 250 419 250 459 q 250 500 240 521 q 230 541 203 554 q 169 505 169 429 q 169 400 178 369 q 182 358 182 354 q 182 340 167 340 q 153 340 130 351 q 106 363 94 375 q 81 390 72 413 q 63 437 63 463 q 63 500 78 534 q 94 567 122 592 q 149 617 188 631 q 226 645 269 645 q 312 645 347 626 q 383 607 404 574 q 425 542 425 503 q 425 474 414 441 q 403 409 379 368 q 355 328 318 280 q 281 231 232 176 l 222 164 l 214 155 q 234 149 270 149 q 306 149 342 153 q 377 157 398 163 q 412 167 416 167 q 421 167 421 164 q 421 146 398 108 q 375 70 349 45 q 323 20 286 9 q 249 -3 195 -3 q 125 -3 76 16 q 26 35 26 62 q 26 81 76 136 q 112 177 141 217 q 143 220 145 223 q 147 226 149 228 q 151 231 154 236 z"},"{":{"x_min":0,"x_max":389,"ha":389,"o":"m 93 278 l 93 395 q 132 396 153 409 q 173 421 185 448 q 194 473 197 496 q 200 520 200 570 l 200 578 l 200 587 q 200 624 202 648 q 203 673 207 691 q 210 709 216 724 q 229 757 261 777 q 289 793 317 799 q 346 805 401 805 l 427 805 l 427 689 l 420 689 q 378 689 359 684 q 341 678 334 664 q 327 650 327 618 q 327 631 325 559 q 325 542 324 527 q 323 512 323 501 q 322 490 321 480 q 319 452 309 423 q 298 393 283 375 q 268 357 235 336 q 290 304 309 249 q 317 223 320 201 q 322 180 325 114 q 327 42 327 55 q 327 22 336 7 q 346 -8 370 -13 q 388 -16 420 -16 l 426 -16 l 426 -133 l 401 -133 q 344 -133 315 -127 q 287 -121 260 -104 q 229 -83 216 -51 q 207 -28 203 0 q 199 29 199 85 l 199 94 l 199 102 q 199 153 196 178 q 193 203 184 224 q 169 254 148 266 q 127 276 93 278 z"},"9":{"x_min":0,"x_max":490,"ha":490,"o":"m 280 331 q 299 378 310 425 q 320 471 320 513 q 320 550 308 572 q 297 594 278 594 q 270 594 258 587 q 246 580 236 570 q 210 543 195 507 q 180 472 180 438 q 180 397 208 367 q 235 337 280 331 z m 269 304 l 269 302 l 267 304 q 225 276 197 266 q 169 255 138 255 q 87 255 54 291 q 22 327 22 384 q 22 448 62 509 q 102 569 167 607 q 231 646 296 645 q 367 645 419 594 q 478 535 478 433 q 478 360 441 282 q 405 205 345 140 q 285 76 211 36 q 138 -3 70 -3 q 54 -3 48 0 q 41 4 41 13 q 41 18 46 23 q 51 27 62 32 q 103 50 142 90 q 181 130 215 186 q 248 242 269 304 z"}," ":{"x_min":0,"x_max":266,"ha":266,"o":""},"I":{"x_min":0,"x_max":580,"ha":580,"o":"m 348 579 l 344 579 q 303 579 208 548 q 138 525 115 525 q 100 525 88 535 q 77 545 77 559 q 77 583 104 617 q 130 651 157 662 q 197 678 323 678 q 374 678 424 673 q 475 668 510 660 q 545 651 554 642 q 559 637 559 621 q 559 606 551 568 q 543 529 532 494 q 463 279 369 107 q 346 64 324 41 q 302 17 276 7 q 250 -3 214 -3 q 162 -3 118 17 q 73 37 48 71 q 22 104 22 145 q 22 173 34 206 q 46 238 61 256 q 68 265 78 265 q 94 265 108 250 q 123 235 139 198 q 163 143 194 106 q 197 102 209 89 q 232 140 244 173 q 257 206 273 261 q 284 296 311 397 q 332 481 348 579 z"},"H":{"x_min":0,"x_max":750,"ha":750,"o":"m 258 220 l 248 188 q 246 177 240 159 q 214 67 197 38 q 193 32 184 21 q 152 -8 107 -8 q 71 -8 49 8 q 27 24 27 49 q 27 67 40 114 q 52 160 68 202 q 30 209 30 235 q 30 253 42 276 q 54 298 72 316 q 90 334 107 340 q 114 361 135 428 q 181 574 210 624 q 222 641 230 650 q 255 674 295 674 q 319 674 338 665 q 357 657 367 642 q 377 627 377 607 q 377 579 307 373 q 306 370 304 363 q 302 356 300 351 l 298 347 l 478 351 l 487 382 q 502 432 519 480 q 535 529 547 558 q 559 588 571 610 q 583 633 594 644 q 620 672 664 672 q 740 672 740 606 q 740 544 674 380 q 664 355 662 350 q 664 351 666 351 q 667 351 669 351 q 696 351 711 342 q 727 332 727 316 q 727 305 714 285 q 701 265 686 250 q 671 234 660 228 q 650 223 620 217 l 618 209 q 615 202 608 182 q 598 154 587 125 q 576 97 569 81 q 562 65 555 54 q 547 42 536 34 q 513 16 482 5 q 452 -7 432 -7 q 409 -7 396 4 q 383 16 383 36 q 383 71 420 182 q 429 207 432 218 z"},"4":{"x_min":0,"x_max":490,"ha":490,"o":"m 229 236 l 196 234 q 124 229 107 229 q 77 229 60 232 q 43 235 38 243 q 32 251 32 267 q 32 279 39 302 q 46 324 67 376 q 83 417 92 440 q 118 507 133 537 q 138 546 141 552 q 145 559 150 567 q 166 592 189 607 q 241 642 288 642 q 325 642 325 624 q 325 600 232 468 q 187 403 153 348 l 267 354 q 279 395 300 421 q 320 447 351 459 q 381 472 422 472 q 443 472 451 468 q 460 463 460 452 q 460 442 453 418 q 445 395 433 362 l 429 352 q 439 353 442 353 q 445 354 450 354 q 455 354 458 355 q 461 355 465 355 q 476 355 476 349 q 476 347 475 346 q 466 327 451 304 q 435 281 422 268 q 412 256 395 251 q 384 216 355 116 q 354 112 353 104 q 352 97 351 94 q 344 54 332 43 q 293 20 264 9 q 235 -2 207 -2 q 187 -2 171 8 q 156 18 156 31 q 156 43 166 77 q 176 110 196 159 q 215 208 229 236 z"},"~":{"x_min":0,"x_max":667,"ha":667,"o":"m 570 420 l 605 420 q 603 366 585 325 q 567 285 536 263 q 504 242 463 242 q 442 242 421 246 q 400 250 368 262 q 335 274 277 299 q 209 328 177 328 q 144 328 123 306 q 103 284 97 242 l 63 242 q 65 293 75 325 q 86 356 108 380 q 126 399 150 410 q 175 420 202 420 q 249 420 323 390 q 361 376 389 364 q 458 333 486 333 q 523 333 544 355 q 566 378 570 420 z"},"D":{"x_min":0,"x_max":680,"ha":680,"o":"m 354 566 l 256 195 q 255 191 252 177 q 243 138 232 117 q 224 101 207 80 q 221 79 239 79 q 281 79 310 85 q 338 90 362 104 q 387 118 408 139 q 449 181 470 235 q 492 290 492 354 q 492 413 475 460 q 457 508 426 536 q 395 563 354 566 z m 24 80 l 140 472 q 153 518 166 536 q 174 547 188 554 l 188 556 l 181 556 q 167 556 122 540 q 73 523 54 523 q 44 523 41 526 q 37 530 37 538 q 37 558 48 581 q 59 604 77 623 q 94 641 113 649 q 155 666 228 675 q 301 684 386 684 q 478 684 542 655 q 607 626 640 570 q 674 513 674 433 q 674 353 642 271 q 610 189 557 134 q 434 3 227 3 q 161 3 106 14 q 51 24 33 40 q 22 49 22 66 q 22 70 24 80 z"},"^":{"x_min":0,"x_max":469,"ha":469,"o":"m 116 337 l 26 337 l 199 728 l 270 728 l 443 337 l 354 337 l 234 629 z"},"0":{"x_min":0,"x_max":531,"ha":531,"o":"m 411 628 l 416 628 q 442 628 467 604 q 491 580 505 540 q 519 500 519 456 q 519 412 506 357 q 494 303 472 252 q 451 202 421 155 q 391 107 359 76 q 283 -1 203 -1 q 150 -1 109 26 q 69 52 47 101 q 25 150 25 214 q 25 323 71 424 q 116 524 191 586 q 267 648 346 648 q 385 648 411 628 z m 367 605 l 376 610 l 374 612 q 343 611 310 580 q 277 549 250 500 q 224 452 208 390 q 191 329 191 274 q 191 234 205 193 q 219 151 240 123 q 261 95 281 95 q 296 95 312 115 q 329 136 343 173 q 357 208 367 248 q 377 287 383 325 q 388 363 388 394 q 388 443 372 488 q 356 533 331 554 q 326 558 326 561 q 326 572 367 605 z"},"F":{"x_min":0,"x_max":500,"ha":500,"o":"m 170 483 l 181 511 q 126 513 105 522 q 83 532 83 555 q 83 574 98 593 q 115 616 135 635 q 154 655 171 663 q 185 669 210 669 q 271 669 347 662 q 365 661 376 661 q 388 660 402 659 q 434 659 443 658 q 452 657 464 652 q 472 649 478 643 q 490 630 490 603 q 490 552 455 538 q 435 529 418 527 q 401 524 358 520 l 305 345 q 343 345 366 347 q 381 348 411 348 q 447 348 461 341 q 476 333 476 314 q 476 299 462 271 q 448 244 431 227 q 423 219 409 217 q 395 214 361 214 l 354 214 l 342 214 q 309 214 267 211 q 245 137 227 97 q 208 58 181 31 q 163 12 142 1 q 121 -9 103 -9 q 73 -9 52 8 q 30 25 30 48 q 30 75 76 219 q 123 362 170 483 z"},"`":{"x_min":0,"x_max":333,"ha":333,"o":"m 225 722 q 234 722 242 715 q 249 708 259 689 q 279 648 314 615 q 318 611 322 607 q 326 604 331 599 q 341 591 346 585 q 350 580 350 572 q 350 550 314 550 q 232 550 173 608 q 157 624 148 638 q 139 652 139 660 q 139 666 153 678 q 167 691 186 704 q 213 722 225 722 z"},"k":{"x_min":0,"x_max":500,"ha":500,"o":"m 490 -87 q 422 -175 386 -175 q 360 -175 332 -155 q 303 -134 278 -100 q 253 -65 239 -25 q 224 15 224 51 q 224 71 231 78 q 234 81 244 88 q 326 139 326 184 q 326 208 305 208 q 283 208 247 165 q 212 122 183 59 q 166 20 154 9 q 143 -1 119 -1 q 93 -1 74 13 q 55 28 45 54 q 34 81 34 115 q 34 168 47 230 q 61 293 84 356 q 108 419 141 479 q 173 539 209 585 q 279 674 346 674 q 379 674 406 659 q 432 644 446 616 q 460 588 460 551 q 460 505 438 460 q 415 415 379 386 q 343 358 307 358 q 290 358 290 370 q 290 375 299 393 q 342 478 342 586 q 342 614 335 614 q 330 614 320 600 q 310 585 301 565 q 247 444 223 287 q 222 279 220 265 q 218 251 216 234 l 218 232 q 238 260 251 274 q 264 288 285 304 q 351 356 408 356 q 438 356 456 339 q 475 322 475 295 q 475 229 433 159 q 421 139 406 119 q 391 99 362 67 q 379 37 402 7 q 422 -20 452 -46 q 479 -68 490 -87 z"},"u":{"x_min":0,"x_max":531,"ha":531,"o":"m 327 153 l 319 146 q 316 145 286 121 q 228 75 189 49 q 151 22 126 10 q 101 -3 85 -3 q 59 -3 43 19 q 27 41 27 75 q 27 134 44 212 q 62 290 92 365 q 125 449 172 468 q 188 475 211 475 q 242 475 261 456 q 280 437 280 406 q 280 384 272 360 q 265 336 249 303 l 243 289 q 201 200 201 181 q 201 170 209 170 q 216 170 228 180 q 240 190 264 218 q 279 236 307 264 l 325 282 l 341 299 q 390 348 421 369 q 453 391 473 391 q 512 391 512 323 q 512 309 509 273 q 503 203 503 154 q 503 144 504 136 q 504 128 504 115 q 507 83 509 65 q 512 37 512 37 q 512 22 486 11 q 459 0 425 0 q 393 0 370 12 q 348 25 336 49 q 324 74 324 109 q 324 113 325 124 q 326 135 327 153 z"},"]":{"x_min":0,"x_max":406,"ha":406,"o":"m 199 -2 l 147 -4 l 125 -4 l 111 -4 q 77 -4 58 0 q 39 3 31 12 q 22 21 22 36 q 22 49 31 73 q 39 90 45 95 q 51 102 83 102 l 92 102 l 110 102 q 137 102 182 105 q 186 119 190 138 q 195 180 202 222 q 215 319 221 388 q 227 456 232 561 q 172 559 146 555 q 125 552 114 552 q 99 552 94 556 q 88 560 88 570 q 88 587 98 613 q 108 639 117 649 q 130 662 174 670 q 218 678 275 678 q 307 678 340 671 q 374 664 383 654 q 395 644 395 623 q 395 592 390 567 l 343 307 q 295 38 269 11 q 259 0 199 -2 z"},"U":{"x_min":0,"x_max":625,"ha":625,"o":"m 391 230 l 392 230 l 390 230 q 353 166 325 126 q 297 86 272 61 q 241 30 209 13 q 178 -3 150 -3 q 90 -3 57 33 q 24 69 24 134 q 24 218 70 381 q 85 435 102 482 q 118 530 136 574 q 155 619 165 637 q 172 650 185 657 q 197 665 220 670 q 255 677 286 677 q 338 677 338 632 q 338 606 316 556 q 296 508 284 473 q 283 470 281 463 q 278 456 275 446 q 266 417 250 358 q 234 299 226 258 q 217 217 217 205 q 217 187 227 187 q 238 187 278 238 q 315 286 364 361 q 412 435 443 493 q 463 531 473 545 q 482 559 492 566 q 518 585 553 585 q 598 585 598 544 q 598 536 595 510 q 582 403 582 313 q 582 272 584 239 q 587 206 592 174 q 597 142 605 107 q 615 60 615 49 q 615 41 610 34 q 602 22 579 15 q 537 -1 514 -1 q 486 -1 461 20 q 436 40 419 77 q 400 121 394 191 q 393 203 391 230 z"},"o":{"x_min":0,"x_max":542,"ha":542,"o":"m 351 491 q 424 491 424 474 q 424 455 391 453 q 352 451 317 431 q 283 411 257 376 q 230 341 215 298 q 200 254 200 206 q 200 153 225 120 q 250 88 290 88 q 327 88 355 126 q 383 164 383 215 q 383 256 365 293 q 348 329 315 354 q 301 365 301 370 q 301 377 321 391 q 343 406 371 417 q 399 427 418 427 q 440 427 460 415 q 479 404 495 383 q 510 361 518 334 q 526 306 526 275 q 526 223 506 173 q 487 122 455 91 q 414 51 356 26 q 298 1 246 1 q 195 1 145 19 q 95 36 66 65 q 27 104 27 176 q 27 232 55 289 q 83 346 130 392 q 178 438 235 465 q 292 491 351 491 z"},"N":{"x_min":0,"x_max":802,"ha":802,"o":"m 118 232 l 152 324 l 198 442 q 222 506 241 543 q 255 569 255 580 q 255 594 232 611 q 217 621 217 629 q 217 639 247 650 q 273 661 306 669 q 339 677 360 677 q 401 677 422 655 q 446 630 482 500 q 497 447 514 398 q 532 349 544 327 q 547 319 562 297 q 578 348 600 431 q 632 562 659 608 q 667 623 678 634 q 698 652 721 662 q 745 672 768 672 q 782 672 788 665 q 793 657 793 638 q 793 624 791 617 q 786 592 774 552 q 762 511 740 448 q 717 385 684 295 l 677 277 q 673 265 670 258 q 611 92 580 43 q 574 33 565 24 q 550 9 535 9 q 498 9 454 89 q 375 232 330 384 q 321 412 316 437 l 314 437 l 255 251 q 254 246 251 239 q 248 231 246 224 q 244 219 241 212 q 239 206 237 201 q 221 152 210 128 q 200 103 190 87 q 181 72 164 54 q 139 31 109 18 q 79 5 49 5 q 24 5 24 25 q 24 40 46 77 q 71 120 103 194 q 108 209 118 232 z"},"+":{"x_min":0,"x_max":667,"ha":667,"o":"m 61 383 l 281 383 l 281 602 l 385 602 l 385 383 l 606 383 l 606 278 l 385 278 l 385 59 l 281 59 l 281 278 l 61 278 z"},"G":{"x_min":0,"x_max":625,"ha":625,"o":"m 369 90 q 320 43 278 22 q 236 1 193 1 q 142 1 105 25 q 68 50 49 96 q 30 142 30 204 q 30 282 71 365 q 111 447 180 518 q 249 588 330 630 q 411 672 488 672 q 611 672 611 564 q 611 522 588 482 q 565 443 528 419 q 490 395 448 395 q 431 395 431 407 q 431 411 437 424 q 450 450 457 480 q 465 523 465 546 q 465 587 455 587 q 432 587 391 554 q 350 521 323 483 q 299 449 279 403 q 259 356 247 309 q 236 262 236 222 q 236 185 252 160 q 268 136 294 136 q 338 136 394 249 q 412 280 418 289 q 424 297 435 304 q 465 323 511 338 q 558 353 583 353 q 613 353 613 323 q 613 321 610 302 q 575 159 526 40 q 477 -79 430 -129 q 409 -152 367 -167 q 325 -182 281 -182 q 245 -182 207 -170 q 170 -158 146 -139 q 122 -120 122 -101 q 122 -89 136 -73 q 149 -58 173 -42 q 210 -17 222 -17 q 235 -17 258 -45 q 286 -77 317 -98 q 334 -58 350 0 q 366 58 369 90 z"},"q":{"x_min":0,"x_max":548,"ha":548,"o":"m 389 274 l 383 274 l 376 274 q 371 274 368 274 q 364 273 360 273 q 336 273 336 281 q 336 286 346 301 q 358 322 369 350 q 380 378 380 389 q 380 401 372 401 q 365 401 354 393 q 335 380 314 360 q 294 340 276 318 q 258 296 247 276 q 230 245 219 202 q 207 159 207 128 q 207 106 215 106 q 229 106 293 176 q 325 209 362 247 z m 310 92 l 291 76 q 260 52 232 35 q 204 18 182 11 q 161 5 137 5 q 88 5 58 36 q 28 67 28 118 q 28 168 53 227 q 79 286 122 340 q 166 394 218 428 q 293 479 387 479 q 457 479 486 462 q 516 445 516 405 q 516 362 489 326 q 478 311 454 294 l 460 290 q 464 288 465 287 q 488 274 495 265 q 502 257 502 240 q 502 221 491 168 q 481 115 467 67 q 414 -112 369 -155 q 358 -165 328 -175 q 297 -186 278 -186 q 263 -186 254 -176 q 245 -165 245 -149 q 245 -104 296 42 q 307 73 309 81 l 312 90 z"},"d":{"x_min":0,"x_max":573,"ha":573,"o":"m 336 215 l 336 243 q 311 221 299 221 q 292 221 292 228 q 292 231 295 240 q 305 270 305 297 q 305 336 288 379 q 281 401 270 401 q 265 401 261 396 q 245 377 230 344 q 216 310 206 270 q 197 230 197 199 q 197 141 232 141 q 250 141 279 162 q 309 183 336 215 z m 351 447 l 356 467 q 371 534 383 575 q 396 616 408 645 q 421 673 434 686 q 455 708 508 708 q 531 708 543 706 q 554 703 561 697 q 538 624 529 588 q 520 551 509 488 q 492 384 492 301 q 492 246 501 186 q 510 127 531 54 q 505 36 481 23 q 458 11 436 3 q 415 -4 399 -4 q 371 -4 359 24 q 349 47 346 61 q 343 75 336 138 q 271 70 211 31 q 151 -9 115 -9 q 74 -9 48 25 q 22 58 22 111 q 22 158 42 216 q 62 274 98 328 q 122 364 146 388 q 171 413 202 434 q 259 471 297 471 q 315 471 351 447 z"},"1":{"x_min":0,"x_max":375,"ha":375,"o":"m 166 443 l 176 467 q 168 465 153 458 q 119 444 110 444 q 101 444 95 453 q 90 463 90 478 q 90 491 96 508 q 103 526 110 532 q 123 542 221 588 l 236 594 q 240 597 250 601 q 315 633 333 633 q 349 633 358 624 q 367 614 367 597 q 367 561 333 468 q 325 445 321 432 q 316 419 307 394 q 305 385 302 375 q 285 318 277 289 q 276 286 270 266 q 265 246 262 237 q 260 229 257 219 q 224 94 202 59 q 195 48 185 39 q 164 23 149 14 q 133 5 119 2 q 105 -2 88 -2 q 62 -2 43 13 q 23 28 23 47 q 23 50 25 58 q 83 229 166 443 z"},"5":{"x_min":0,"x_max":490,"ha":490,"o":"m 251 510 l 215 446 l 217 444 q 251 458 278 465 q 305 471 331 471 q 398 471 435 440 q 472 408 472 351 q 472 323 464 291 q 456 260 440 228 q 424 196 402 165 q 380 134 347 101 q 299 53 251 25 q 203 -2 165 -2 q 137 -2 110 9 q 83 20 63 40 q 27 76 27 142 q 27 230 77 280 q 102 305 135 322 q 169 338 194 338 q 220 338 220 323 l 220 322 q 199 297 189 280 q 178 262 167 233 q 148 184 148 119 q 148 69 168 69 q 194 69 224 99 q 257 134 282 185 q 306 236 306 272 q 306 322 285 345 q 265 369 219 369 q 194 369 151 360 q 127 356 126 356 q 112 356 102 365 q 93 375 93 390 q 93 403 106 443 q 127 510 150 565 l 153 572 q 155 577 161 590 q 175 625 186 633 q 197 642 226 642 q 318 642 365 640 q 376 640 384 639 l 390 639 q 427 637 440 633 q 453 628 453 619 q 453 611 442 594 q 431 577 415 562 q 388 535 358 520 q 329 505 301 505 q 289 505 262 508 q 254 510 254 510 z"}}}
